<svg xmlns="http://www.w3.org/2000/svg" viewBox="0 0 1558.99 163.73"><defs><style>.cls-1{fill:#fff;}</style></defs><g id="Layer_2" data-name="Layer 2"><g id="logo"><path class="cls-1" d="M851.06,109.33c24.65,0,34.26-15,34.26-40.79s-11.24-43.7-33.54-43.7h-25v84.49Zm-50.6-107h54.59C889.68,2.36,912,30.28,912,68.54c0,21-7.07,39.53-20.67,50.95-9.61,8-22.11,12.51-38.43,12.51H800.46ZM939.91,75.43h41.34c-.73-11.79-8.52-19.94-19.76-19.94-13.06,0-19.4,7.79-21.58,19.94m-24.66,10c0-27.56,18.68-48.95,45.87-48.95,29.92,0,45.88,22.84,45.88,56H939.55c1.81,14.33,9.79,23.21,23.75,23.21,9.61,0,15.23-4.35,18-11.42h24.29c-3.44,16.5-18.13,30.46-42.06,30.46-30.82,0-48.23-21.58-48.23-49.32M999.53,39h25l14.86,48.23c2.72,8.88,4.17,14.86,4.17,14.86h.36s1.27-6,4-14.86L1063.17,39h24.66l-32.45,93h-23.57Zm105.86,36.44h41.34c-.73-11.79-8.53-19.94-19.77-19.94-13,0-19.4,7.79-21.57,19.94m-24.66,10c0-27.56,18.68-48.95,45.87-48.95,29.91,0,45.88,22.84,45.88,56H1105c1.81,14.33,9.79,23.21,23.75,23.21,9.61,0,15.23-4.35,18-11.42H1171c-3.44,16.5-18.13,30.46-42.06,30.46-30.82,0-48.23-21.58-48.23-49.32m97.15-83h24.66V132h-24.66Zm102.7,83.22c0-18.13-8.52-30.46-23.57-30.46-15.23,0-23.57,12.33-23.57,30.46s8.34,30.28,23.57,30.28c15,0,23.57-12.15,23.57-30.28m-72.16,0c0-27.74,19.76-49.13,48.59-49.13s48.59,21.39,48.59,49.13-19.76,49.14-48.59,49.14-48.59-21.4-48.59-49.14m169.86.73c0-17.59-6.17-29.92-21.4-29.92-15.41,0-21.57,13.23-21.57,29.92,0,16.86,7.79,27.92,22.48,27.92,12.51,0,20.49-10.34,20.49-27.92M1311.19,39H1335v11.6h.54c6-8.16,14.68-14.14,27.38-14.14,24.65,0,40.43,20.12,40.43,49.13,0,30.1-16.32,49.14-40.25,49.14-13.06,0-21.58-5.26-26.84-13.24h-.36v41h-24.66ZM1433,75.43h41.33c-.72-11.79-8.52-19.94-19.76-19.94-13,0-19.4,7.79-21.57,19.94m-24.66,10c0-27.56,18.68-48.95,45.87-48.95,29.91,0,45.87,22.84,45.87,56h-67.45c1.82,14.33,9.79,23.21,23.75,23.21,9.61,0,15.23-4.35,17.95-11.42h24.3c-3.45,16.5-18.13,30.46-42.06,30.46-30.82,0-48.23-21.58-48.23-49.32M1529.8,53.85h.54c5.62-10.51,12-16,22.85-16a16.23,16.23,0,0,1,5.8.72V60.2h-.55c-16.13-1.63-27.74,6.89-27.74,26.47V132H1506V39h23.76Z"/><path class="cls-1" d="M0,2.36H54.53c34.62,0,56.92,27.92,56.92,66.18,0,21-7.07,39.52-20.67,50.95-9.6,8-22.11,12.51-38.42,12.51H0Zm50.55,107c24.65,0,34.25-15,34.25-40.79s-11.24-43.7-33.53-43.7h-25v84.49Z"/><path class="cls-1" d="M115.37,85.58c0-27.74,19.76-49.14,48.58-49.14s48.57,21.4,48.57,49.14S192.76,134.72,164,134.72,115.37,113.32,115.37,85.58Zm72.14,0c0-18.13-8.52-30.46-23.56-30.46-15.23,0-23.57,12.33-23.57,30.46s8.34,30.28,23.57,30.28C179,115.86,187.51,103.71,187.51,85.58Z"/><path class="cls-1" d="M217.59,85.58c0-27.74,18.12-49.14,46.4-49.14,24.1,0,39,14,42.23,34.09H282.11c-1.63-8.16-8-14.32-17-14.32-14.86,0-22.47,11.42-22.47,29.37,0,17.59,7.07,29.37,22.11,29.37,10,0,17-5.25,18.67-15.77h23.75c-1.64,19.76-17,35.54-41.87,35.54C235.89,134.72,217.59,113.32,217.59,85.58Z"/><path class="cls-1" d="M372.3,132V121.12h-.54c-6.35,8.52-13.6,13.42-26.65,13.42-20.66,0-32.26-13.24-32.26-33.55V39h24.47V96.82c0,10.88,4.89,16.86,15.4,16.86,11.6,0,18.67-8.7,18.67-21V39H396v93Z"/><path class="cls-1" d="M516.13,2.92h24.65V26H516.13Zm0,36.06h24.65v93H516.13Z"/><path class="cls-1" d="M551,134.72h24.46c2,5.8,7.26,10.33,18.67,10.33,14,0,20.67-6.71,20.67-19.4V115.5h-.55c-5.43,6.16-12.5,10.88-24.28,10.88-20.67,0-41-16.32-41-44.43,0-27.74,16.68-45.51,40.24-45.51,11.6,0,20.12,4.54,25.74,12.33h.36V39H639.1v86c0,13-4.16,21.93-11.05,28.28-7.8,7.25-19.76,10.52-33.53,10.52C569.14,163.73,553.55,152.85,551,134.72Zm65.07-53.31c0-13.6-7.25-25.2-22.12-25.2-12.5,0-20.84,9.79-20.84,25.38,0,15.78,8.34,25,21,25C609.74,106.61,616.09,95.19,616.09,81.41Z"/><path class="cls-1" d="M673.77,51.68h.54c6.35-10,14.86-15.24,27.55-15.24,19.21,0,32.08,14.51,32.08,34.82V132H709.29V74.88c0-10-5.8-17-16.13-17-10.87,0-18.85,8.7-18.85,21.39V132H649.66V39h24.11Z"/><path class="cls-1" d="M460,53.85c-19.21-4.17-28.27-7.25-28.27-17.77,0-9.25,9.24-15.23,23.38-15.23,12.9,0,22.76,6.06,24.78,18.13h25.28C502.56,13.8,483.88,0,455.25,0c-28.82,0-49.66,13.24-49.66,38.8,0,27,21.2,33.18,44.4,38.44,19.76,4.53,32.08,7.07,32.08,19.76,0,12-11.78,16.68-25.19,16.68-18.49,0-27.37-6.16-29.18-21.75H402c.91,27.38,20.84,43,56,43,29.18,0,50.39-14.69,50.39-41C508.36,66,486.61,59.65,460,53.85Z"/><path class="cls-1" d="M744,56.16a9.81,9.81,0,1,1,9.8-9.8A9.82,9.82,0,0,1,744,56.16Zm0-18.07a8.27,8.27,0,1,0,8.26,8.27A8.28,8.28,0,0,0,744,38.09Z"/><path class="cls-1" d="M740.58,41.31h3.19c1.34,0,2.23,0,3.11.73A3,3,0,0,1,748,44.51a2.75,2.75,0,0,1-2,2.75l2.23,4.08H746.1l-2-3.72h-1.67v3.72h-1.86Zm1.86,1.62v3.14h.65c.64,0,.88,0,1.24,0a1.56,1.56,0,0,0,1.76-1.55,1.45,1.45,0,0,0-.8-1.35,4.59,4.59,0,0,0-2-.21Z"/></g></g></svg>